<svg xmlns="http://www.w3.org/2000/svg" version="1.1" x="0" y="0" viewBox="0 0 502.7 502.7" xml:space="preserve" fill="rgb(0, 166, 156)"><style>.s0{fill:rgb(0, 166, 156);}</style><polygon points="83.2 234.1 102.5 306.1 131 306.1 167 194.2 137.7 194.2 116.4 267.5 97.6 194.2 69 194.2 49.7 267.5 28.8 194.2 0 194.2 35.4 306.1 64.2 306.1 " fill="rgb(0, 166, 156)"></polygon><polygon points="265.5 194.2 236.9 194.2 217.6 267.5 196.5 194.2 167.8 194.2 203.2 306.1 232.1 306.1 251 234.1 270.4 306.1 298.8 306.1 334.8 194.2 305.6 194.2 284.2 267.5 " fill="rgb(0, 166, 156)"></polygon><polygon points="473.4 194.2 452 267.5 433.3 194.2 404.7 194.2 385.3 267.5 364.4 194.2 335.6 194.2 371.1 306.1 399.9 306.1 418.8 234.1 438.1 306.1 466.7 306.1 502.7 194.2 " fill="rgb(0, 166, 156)"></polygon><path d="M251.3 35.8c-86.6 0-161 51.2-195.3 124.8h390.6C412.3 86.9 337.9 35.8 251.3 35.8zM251.3 466.9c86.6 0 161-51.1 195.3-124.8H56.1C90.3 415.7 164.8 466.9 251.3 466.9z" fill="rgb(0, 166, 156)"></path></svg>
